<?xml version="1.0" encoding="UTF-8"?>
<svg version="1.1" xmlns="http://www.w3.org/2000/svg" width="256" height="256">
<path d="M0 0 C84.48 0 168.96 0 256 0 C256 84.48 256 168.96 256 256 C171.52 256 87.04 256 0 256 C0 171.52 0 87.04 0 0 Z " fill="#737373" transform="translate(0,0)"/>
<path d="M0 0 C24.2307142 21.61905608 39.22933043 48.58547209 43 81 C43 82.65 43 84.3 43 86 C-41.48 86 -125.96 86 -213 86 C-210.72098323 56.37278197 -200.46637848 30.60094575 -179.37255859 9.39599609 C-178.1514101 8.15399554 -176.97273455 6.8705554 -175.80078125 5.58203125 C-131.33796446 -42.26842873 -48.0497246 -40.89954634 0 0 Z " fill="#FEFEFE" transform="translate(213,170)"/>
<path d="M0 0 C11.02505857 8.32862601 18.88475055 20.14918389 21 34 C21.81192075 50.69158001 18.72897571 63.83867058 7.83984375 77.0390625 C-2.03742362 87.56642602 -16.12078312 92.91790522 -30.375 93.4375 C-41.66414473 93.12654152 -51.86861137 89.57715405 -61 83 C-61.69609375 82.51015625 -62.3921875 82.0203125 -63.109375 81.515625 C-72.93997848 73.81879592 -79.3180996 61.23066168 -81 49 C-81.76485418 32.67125269 -78.51170785 19.12171733 -67.625 6.5 C-60.42860477 -0.91520455 -52.83300729 -4.98041508 -43 -8 C-42.38769531 -8.19464844 -41.77539062 -8.38929687 -41.14453125 -8.58984375 C-26.79889275 -11.3335451 -12.02788765 -8.06555277 0 0 Z " fill="#FEFEFE" transform="translate(158,35)"/>
</svg>
